{
 "cells": [
  {
   "cell_type": "code",
   "execution_count": 1,
   "metadata": {},
   "outputs": [
    {
     "name": "stderr",
     "output_type": "stream",
     "text": [
      "Processing videos:   0%|          | 0/10 [00:00<?, ?it/s]ffmpeg version 6.1.1 Copyright (c) 2000-2023 the FFmpeg developers\n",
      "  built with gcc 11.2.0 (Anaconda gcc)\n",
      "  configuration: --prefix=/croot/ffmpeg_1722024521393/_h_env_placehold_placehold_placehold_placehold_placehold_placehold_placehold_placehold_placehold_placehold_placehold_placehold_placehold_placehold_placehold_placehold_placehold_placehold_placehold_placehold_placehold_placehold_ --cc=/croot/ffmpeg_1722024521393/_build_env/bin/x86_64-conda-linux-gnu-cc --ar=/croot/ffmpeg_1722024521393/_build_env/bin/x86_64-conda-linux-gnu-ar --nm=/croot/ffmpeg_1722024521393/_build_env/bin/x86_64-conda-linux-gnu-nm --ranlib=/croot/ffmpeg_1722024521393/_build_env/bin/x86_64-conda-linux-gnu-ranlib --strip=/croot/ffmpeg_1722024521393/_build_env/bin/x86_64-conda-linux-gnu-strip --disable-doc --enable-swresample --enable-swscale --enable-openssl --enable-libxml2 --enable-libtheora --enable-demuxer=dash --enable-postproc --enable-hardcoded-tables --enable-libfreetype --enable-libharfbuzz --enable-libfontconfig --enable-libdav1d --enable-zlib --enable-libaom --enable-pic --enable-shared --disable-static --disable-gpl --enable-version3 --disable-sdl2 --enable-libopenh264 --enable-libopus --enable-libmp3lame --enable-libopenjpeg --enable-libvorbis --enable-pthreads --enable-libtesseract --enable-libvpx\n",
      "  libavutil      58. 29.100 / 58. 29.100\n",
      "  libavcodec     60. 31.102 / 60. 31.102\n",
      "  libavformat    60. 16.100 / 60. 16.100\n",
      "  libavdevice    60.  3.100 / 60.  3.100\n",
      "  libavfilter     9. 12.100 /  9. 12.100\n",
      "  libswscale      7.  5.100 /  7.  5.100\n",
      "  libswresample   4. 12.100 /  4. 12.100\n",
      "Input #0, mov,mp4,m4a,3gp,3g2,mj2, from './data/sample_tv360/do_merge/merged_video_processed_1.mp4':\n",
      "  Metadata:\n",
      "    major_brand     : isom\n",
      "    minor_version   : 512\n",
      "    compatible_brands: isomiso2avc1mp41\n",
      "    encoder         : Lavf60.16.100\n",
      "  Duration: 00:00:27.01, start: 0.000000, bitrate: 1684 kb/s\n",
      "  Stream #0:0[0x1](und): Video: h264 (Constrained Baseline) (avc1 / 0x31637661), yuv420p(tv, bt709, progressive), 640x360 [SAR 1:1 DAR 16:9], 1562 kb/s, 30 fps, 30 tbr, 15360 tbn (default)\n",
      "    Metadata:\n",
      "      handler_name    : ISO Media file produced by Google Inc.\n",
      "      vendor_id       : [0][0][0][0]\n",
      "      encoder         : Lavc60.31.102 libopenh264\n",
      "  Stream #0:1[0x2](und): Audio: aac (LC) (mp4a / 0x6134706D), 44100 Hz, stereo, fltp, 115 kb/s (default)\n",
      "    Metadata:\n",
      "      handler_name    : SoundHandler\n",
      "      vendor_id       : [0][0][0][0]\n",
      "Output ./data/sample_tv360/do_merge/merged_video_processed_1.mp4 same as Input #0 - exiting\n",
      "FFmpeg cannot edit existing files in-place.\n",
      "Error opening output file ./data/sample_tv360/do_merge/merged_video_processed_1.mp4.\n",
      "Error opening output files: Invalid argument\n",
      "ffmpeg version 6.1.1 Copyright (c) 2000-2023 the FFmpeg developers\n",
      "  built with gcc 11.2.0 (Anaconda gcc)\n",
      "  configuration: --prefix=/croot/ffmpeg_1722024521393/_h_env_placehold_placehold_placehold_placehold_placehold_placehold_placehold_placehold_placehold_placehold_placehold_placehold_placehold_placehold_placehold_placehold_placehold_placehold_placehold_placehold_placehold_placehold_ --cc=/croot/ffmpeg_1722024521393/_build_env/bin/x86_64-conda-linux-gnu-cc --ar=/croot/ffmpeg_1722024521393/_build_env/bin/x86_64-conda-linux-gnu-ar --nm=/croot/ffmpeg_1722024521393/_build_env/bin/x86_64-conda-linux-gnu-nm --ranlib=/croot/ffmpeg_1722024521393/_build_env/bin/x86_64-conda-linux-gnu-ranlib --strip=/croot/ffmpeg_1722024521393/_build_env/bin/x86_64-conda-linux-gnu-strip --disable-doc --enable-swresample --enable-swscale --enable-openssl --enable-libxml2 --enable-libtheora --enable-demuxer=dash --enable-postproc --enable-hardcoded-tables --enable-libfreetype --enable-libharfbuzz --enable-libfontconfig --enable-libdav1d --enable-zlib --enable-libaom --enable-pic --enable-shared --disable-static --disable-gpl --enable-version3 --disable-sdl2 --enable-libopenh264 --enable-libopus --enable-libmp3lame --enable-libopenjpeg --enable-libvorbis --enable-pthreads --enable-libtesseract --enable-libvpx\n",
      "  libavutil      58. 29.100 / 58. 29.100\n",
      "  libavcodec     60. 31.102 / 60. 31.102\n",
      "  libavformat    60. 16.100 / 60. 16.100\n",
      "  libavdevice    60.  3.100 / 60.  3.100\n",
      "  libavfilter     9. 12.100 /  9. 12.100\n",
      "  libswscale      7.  5.100 /  7.  5.100\n",
      "  libswresample   4. 12.100 /  4. 12.100\n",
      "[in#0 @ 0x100d280] Error opening input: No such file or directory\n",
      "Error opening input file ./data/sample_tv360/do_merge/chunk_1_gt.mp4.\n",
      "Error opening input files: No such file or directory\n",
      "Processing videos:  10%|█         | 1/10 [00:00<00:01,  6.20it/s]ffmpeg version 6.1.1 Copyright (c) 2000-2023 the FFmpeg developers\n",
      "  built with gcc 11.2.0 (Anaconda gcc)\n",
      "  configuration: --prefix=/croot/ffmpeg_1722024521393/_h_env_placehold_placehold_placehold_placehold_placehold_placehold_placehold_placehold_placehold_placehold_placehold_placehold_placehold_placehold_placehold_placehold_placehold_placehold_placehold_placehold_placehold_placehold_ --cc=/croot/ffmpeg_1722024521393/_build_env/bin/x86_64-conda-linux-gnu-cc --ar=/croot/ffmpeg_1722024521393/_build_env/bin/x86_64-conda-linux-gnu-ar --nm=/croot/ffmpeg_1722024521393/_build_env/bin/x86_64-conda-linux-gnu-nm --ranlib=/croot/ffmpeg_1722024521393/_build_env/bin/x86_64-conda-linux-gnu-ranlib --strip=/croot/ffmpeg_1722024521393/_build_env/bin/x86_64-conda-linux-gnu-strip --disable-doc --enable-swresample --enable-swscale --enable-openssl --enable-libxml2 --enable-libtheora --enable-demuxer=dash --enable-postproc --enable-hardcoded-tables --enable-libfreetype --enable-libharfbuzz --enable-libfontconfig --enable-libdav1d --enable-zlib --enable-libaom --enable-pic --enable-shared --disable-static --disable-gpl --enable-version3 --disable-sdl2 --enable-libopenh264 --enable-libopus --enable-libmp3lame --enable-libopenjpeg --enable-libvorbis --enable-pthreads --enable-libtesseract --enable-libvpx\n",
      "  libavutil      58. 29.100 / 58. 29.100\n",
      "  libavcodec     60. 31.102 / 60. 31.102\n",
      "  libavformat    60. 16.100 / 60. 16.100\n",
      "  libavdevice    60.  3.100 / 60.  3.100\n",
      "  libavfilter     9. 12.100 /  9. 12.100\n",
      "  libswscale      7.  5.100 /  7.  5.100\n",
      "  libswresample   4. 12.100 /  4. 12.100\n",
      "Input #0, mov,mp4,m4a,3gp,3g2,mj2, from './data/sample_tv360/do_merge/merged_video_processed_2.mp4':\n",
      "  Metadata:\n",
      "    major_brand     : isom\n",
      "    minor_version   : 512\n",
      "    compatible_brands: isomiso2avc1mp41\n",
      "    encoder         : Lavf60.16.100\n",
      "  Duration: 00:00:27.01, start: 0.000000, bitrate: 1871 kb/s\n",
      "  Stream #0:0[0x1](und): Video: h264 (Constrained Baseline) (avc1 / 0x31637661), yuv420p(tv, bt709, progressive), 640x360 [SAR 1:1 DAR 16:9], 1735 kb/s, 30 fps, 30 tbr, 15360 tbn (default)\n",
      "    Metadata:\n",
      "      handler_name    : ISO Media file produced by Google Inc.\n",
      "      vendor_id       : [0][0][0][0]\n",
      "      encoder         : Lavc60.31.102 libopenh264\n",
      "  Stream #0:1[0x2](und): Audio: aac (LC) (mp4a / 0x6134706D), 44100 Hz, stereo, fltp, 129 kb/s (default)\n",
      "    Metadata:\n",
      "      handler_name    : SoundHandler\n",
      "      vendor_id       : [0][0][0][0]\n",
      "Output ./data/sample_tv360/do_merge/merged_video_processed_2.mp4 same as Input #0 - exiting\n",
      "FFmpeg cannot edit existing files in-place.\n",
      "Error opening output file ./data/sample_tv360/do_merge/merged_video_processed_2.mp4.\n",
      "Error opening output files: Invalid argument\n",
      "ffmpeg version 6.1.1 Copyright (c) 2000-2023 the FFmpeg developers\n",
      "  built with gcc 11.2.0 (Anaconda gcc)\n",
      "  configuration: --prefix=/croot/ffmpeg_1722024521393/_h_env_placehold_placehold_placehold_placehold_placehold_placehold_placehold_placehold_placehold_placehold_placehold_placehold_placehold_placehold_placehold_placehold_placehold_placehold_placehold_placehold_placehold_placehold_ --cc=/croot/ffmpeg_1722024521393/_build_env/bin/x86_64-conda-linux-gnu-cc --ar=/croot/ffmpeg_1722024521393/_build_env/bin/x86_64-conda-linux-gnu-ar --nm=/croot/ffmpeg_1722024521393/_build_env/bin/x86_64-conda-linux-gnu-nm --ranlib=/croot/ffmpeg_1722024521393/_build_env/bin/x86_64-conda-linux-gnu-ranlib --strip=/croot/ffmpeg_1722024521393/_build_env/bin/x86_64-conda-linux-gnu-strip --disable-doc --enable-swresample --enable-swscale --enable-openssl --enable-libxml2 --enable-libtheora --enable-demuxer=dash --enable-postproc --enable-hardcoded-tables --enable-libfreetype --enable-libharfbuzz --enable-libfontconfig --enable-libdav1d --enable-zlib --enable-libaom --enable-pic --enable-shared --disable-static --disable-gpl --enable-version3 --disable-sdl2 --enable-libopenh264 --enable-libopus --enable-libmp3lame --enable-libopenjpeg --enable-libvorbis --enable-pthreads --enable-libtesseract --enable-libvpx\n",
      "  libavutil      58. 29.100 / 58. 29.100\n",
      "  libavcodec     60. 31.102 / 60. 31.102\n",
      "  libavformat    60. 16.100 / 60. 16.100\n",
      "  libavdevice    60.  3.100 / 60.  3.100\n",
      "  libavfilter     9. 12.100 /  9. 12.100\n",
      "  libswscale      7.  5.100 /  7.  5.100\n",
      "  libswresample   4. 12.100 /  4. 12.100\n",
      "[in#0 @ 0x908280] Error opening input: No such file or directory\n",
      "Error opening input file ./data/sample_tv360/do_merge/chunk_2_gt.mp4.\n",
      "Error opening input files: No such file or directory\n",
      "Processing videos:  20%|██        | 2/10 [00:00<00:01,  6.49it/s]ffmpeg version 6.1.1 Copyright (c) 2000-2023 the FFmpeg developers\n",
      "  built with gcc 11.2.0 (Anaconda gcc)\n",
      "  configuration: --prefix=/croot/ffmpeg_1722024521393/_h_env_placehold_placehold_placehold_placehold_placehold_placehold_placehold_placehold_placehold_placehold_placehold_placehold_placehold_placehold_placehold_placehold_placehold_placehold_placehold_placehold_placehold_placehold_ --cc=/croot/ffmpeg_1722024521393/_build_env/bin/x86_64-conda-linux-gnu-cc --ar=/croot/ffmpeg_1722024521393/_build_env/bin/x86_64-conda-linux-gnu-ar --nm=/croot/ffmpeg_1722024521393/_build_env/bin/x86_64-conda-linux-gnu-nm --ranlib=/croot/ffmpeg_1722024521393/_build_env/bin/x86_64-conda-linux-gnu-ranlib --strip=/croot/ffmpeg_1722024521393/_build_env/bin/x86_64-conda-linux-gnu-strip --disable-doc --enable-swresample --enable-swscale --enable-openssl --enable-libxml2 --enable-libtheora --enable-demuxer=dash --enable-postproc --enable-hardcoded-tables --enable-libfreetype --enable-libharfbuzz --enable-libfontconfig --enable-libdav1d --enable-zlib --enable-libaom --enable-pic --enable-shared --disable-static --disable-gpl --enable-version3 --disable-sdl2 --enable-libopenh264 --enable-libopus --enable-libmp3lame --enable-libopenjpeg --enable-libvorbis --enable-pthreads --enable-libtesseract --enable-libvpx\n",
      "  libavutil      58. 29.100 / 58. 29.100\n",
      "  libavcodec     60. 31.102 / 60. 31.102\n",
      "  libavformat    60. 16.100 / 60. 16.100\n",
      "  libavdevice    60.  3.100 / 60.  3.100\n",
      "  libavfilter     9. 12.100 /  9. 12.100\n",
      "  libswscale      7.  5.100 /  7.  5.100\n",
      "  libswresample   4. 12.100 /  4. 12.100\n",
      "Input #0, mov,mp4,m4a,3gp,3g2,mj2, from './data/sample_tv360/do_merge/merged_video_processed_3.mp4':\n",
      "  Metadata:\n",
      "    major_brand     : isom\n",
      "    minor_version   : 512\n",
      "    compatible_brands: isomiso2avc1mp41\n",
      "    encoder         : Lavf60.16.100\n",
      "  Duration: 00:00:27.01, start: 0.000000, bitrate: 2105 kb/s\n",
      "  Stream #0:0[0x1](und): Video: h264 (Constrained Baseline) (avc1 / 0x31637661), yuv420p(tv, bt709, progressive), 640x360 [SAR 1:1 DAR 16:9], 1970 kb/s, 30 fps, 30 tbr, 15360 tbn (default)\n",
      "    Metadata:\n",
      "      handler_name    : ISO Media file produced by Google Inc.\n",
      "      vendor_id       : [0][0][0][0]\n",
      "      encoder         : Lavc60.31.102 libopenh264\n",
      "  Stream #0:1[0x2](und): Audio: aac (LC) (mp4a / 0x6134706D), 44100 Hz, stereo, fltp, 128 kb/s (default)\n",
      "    Metadata:\n",
      "      handler_name    : SoundHandler\n",
      "      vendor_id       : [0][0][0][0]\n",
      "Output ./data/sample_tv360/do_merge/merged_video_processed_3.mp4 same as Input #0 - exiting\n",
      "FFmpeg cannot edit existing files in-place.\n",
      "Error opening output file ./data/sample_tv360/do_merge/merged_video_processed_3.mp4.\n",
      "Error opening output files: Invalid argument\n",
      "ffmpeg version 6.1.1 Copyright (c) 2000-2023 the FFmpeg developers\n",
      "  built with gcc 11.2.0 (Anaconda gcc)\n",
      "  configuration: --prefix=/croot/ffmpeg_1722024521393/_h_env_placehold_placehold_placehold_placehold_placehold_placehold_placehold_placehold_placehold_placehold_placehold_placehold_placehold_placehold_placehold_placehold_placehold_placehold_placehold_placehold_placehold_placehold_ --cc=/croot/ffmpeg_1722024521393/_build_env/bin/x86_64-conda-linux-gnu-cc --ar=/croot/ffmpeg_1722024521393/_build_env/bin/x86_64-conda-linux-gnu-ar --nm=/croot/ffmpeg_1722024521393/_build_env/bin/x86_64-conda-linux-gnu-nm --ranlib=/croot/ffmpeg_1722024521393/_build_env/bin/x86_64-conda-linux-gnu-ranlib --strip=/croot/ffmpeg_1722024521393/_build_env/bin/x86_64-conda-linux-gnu-strip --disable-doc --enable-swresample --enable-swscale --enable-openssl --enable-libxml2 --enable-libtheora --enable-demuxer=dash --enable-postproc --enable-hardcoded-tables --enable-libfreetype --enable-libharfbuzz --enable-libfontconfig --enable-libdav1d --enable-zlib --enable-libaom --enable-pic --enable-shared --disable-static --disable-gpl --enable-version3 --disable-sdl2 --enable-libopenh264 --enable-libopus --enable-libmp3lame --enable-libopenjpeg --enable-libvorbis --enable-pthreads --enable-libtesseract --enable-libvpx\n",
      "  libavutil      58. 29.100 / 58. 29.100\n",
      "  libavcodec     60. 31.102 / 60. 31.102\n",
      "  libavformat    60. 16.100 / 60. 16.100\n",
      "  libavdevice    60.  3.100 / 60.  3.100\n",
      "  libavfilter     9. 12.100 /  9. 12.100\n",
      "  libswscale      7.  5.100 /  7.  5.100\n",
      "  libswresample   4. 12.100 /  4. 12.100\n",
      "[in#0 @ 0x6ee280] Error opening input: No such file or directory\n",
      "Error opening input file ./data/sample_tv360/do_merge/chunk_3_gt.mp4.\n",
      "Error opening input files: No such file or directory\n",
      "Processing videos:  30%|███       | 3/10 [00:00<00:00,  7.65it/s]ffmpeg version 6.1.1 Copyright (c) 2000-2023 the FFmpeg developers\n",
      "  built with gcc 11.2.0 (Anaconda gcc)\n",
      "  configuration: --prefix=/croot/ffmpeg_1722024521393/_h_env_placehold_placehold_placehold_placehold_placehold_placehold_placehold_placehold_placehold_placehold_placehold_placehold_placehold_placehold_placehold_placehold_placehold_placehold_placehold_placehold_placehold_placehold_ --cc=/croot/ffmpeg_1722024521393/_build_env/bin/x86_64-conda-linux-gnu-cc --ar=/croot/ffmpeg_1722024521393/_build_env/bin/x86_64-conda-linux-gnu-ar --nm=/croot/ffmpeg_1722024521393/_build_env/bin/x86_64-conda-linux-gnu-nm --ranlib=/croot/ffmpeg_1722024521393/_build_env/bin/x86_64-conda-linux-gnu-ranlib --strip=/croot/ffmpeg_1722024521393/_build_env/bin/x86_64-conda-linux-gnu-strip --disable-doc --enable-swresample --enable-swscale --enable-openssl --enable-libxml2 --enable-libtheora --enable-demuxer=dash --enable-postproc --enable-hardcoded-tables --enable-libfreetype --enable-libharfbuzz --enable-libfontconfig --enable-libdav1d --enable-zlib --enable-libaom --enable-pic --enable-shared --disable-static --disable-gpl --enable-version3 --disable-sdl2 --enable-libopenh264 --enable-libopus --enable-libmp3lame --enable-libopenjpeg --enable-libvorbis --enable-pthreads --enable-libtesseract --enable-libvpx\n",
      "  libavutil      58. 29.100 / 58. 29.100\n",
      "  libavcodec     60. 31.102 / 60. 31.102\n",
      "  libavformat    60. 16.100 / 60. 16.100\n",
      "  libavdevice    60.  3.100 / 60.  3.100\n",
      "  libavfilter     9. 12.100 /  9. 12.100\n",
      "  libswscale      7.  5.100 /  7.  5.100\n",
      "  libswresample   4. 12.100 /  4. 12.100\n",
      "Input #0, mov,mp4,m4a,3gp,3g2,mj2, from './data/sample_tv360/do_merge/merged_video_processed_4.mp4':\n",
      "  Metadata:\n",
      "    major_brand     : isom\n",
      "    minor_version   : 512\n",
      "    compatible_brands: isomiso2avc1mp41\n",
      "    encoder         : Lavf60.16.100\n",
      "  Duration: 00:00:27.01, start: 0.000000, bitrate: 2011 kb/s\n",
      "  Stream #0:0[0x1](und): Video: h264 (Constrained Baseline) (avc1 / 0x31637661), yuv420p(tv, bt709, progressive), 640x360 [SAR 1:1 DAR 16:9], 1876 kb/s, 30 fps, 30 tbr, 15360 tbn (default)\n",
      "    Metadata:\n",
      "      handler_name    : ISO Media file produced by Google Inc.\n",
      "      vendor_id       : [0][0][0][0]\n",
      "      encoder         : Lavc60.31.102 libopenh264\n",
      "  Stream #0:1[0x2](und): Audio: aac (LC) (mp4a / 0x6134706D), 44100 Hz, stereo, fltp, 127 kb/s (default)\n",
      "    Metadata:\n",
      "      handler_name    : SoundHandler\n",
      "      vendor_id       : [0][0][0][0]\n",
      "Output ./data/sample_tv360/do_merge/merged_video_processed_4.mp4 same as Input #0 - exiting\n",
      "FFmpeg cannot edit existing files in-place.\n",
      "Error opening output file ./data/sample_tv360/do_merge/merged_video_processed_4.mp4.\n",
      "Error opening output files: Invalid argument\n",
      "ffmpeg version 6.1.1 Copyright (c) 2000-2023 the FFmpeg developers\n",
      "  built with gcc 11.2.0 (Anaconda gcc)\n",
      "  configuration: --prefix=/croot/ffmpeg_1722024521393/_h_env_placehold_placehold_placehold_placehold_placehold_placehold_placehold_placehold_placehold_placehold_placehold_placehold_placehold_placehold_placehold_placehold_placehold_placehold_placehold_placehold_placehold_placehold_ --cc=/croot/ffmpeg_1722024521393/_build_env/bin/x86_64-conda-linux-gnu-cc --ar=/croot/ffmpeg_1722024521393/_build_env/bin/x86_64-conda-linux-gnu-ar --nm=/croot/ffmpeg_1722024521393/_build_env/bin/x86_64-conda-linux-gnu-nm --ranlib=/croot/ffmpeg_1722024521393/_build_env/bin/x86_64-conda-linux-gnu-ranlib --strip=/croot/ffmpeg_1722024521393/_build_env/bin/x86_64-conda-linux-gnu-strip --disable-doc --enable-swresample --enable-swscale --enable-openssl --enable-libxml2 --enable-libtheora --enable-demuxer=dash --enable-postproc --enable-hardcoded-tables --enable-libfreetype --enable-libharfbuzz --enable-libfontconfig --enable-libdav1d --enable-zlib --enable-libaom --enable-pic --enable-shared --disable-static --disable-gpl --enable-version3 --disable-sdl2 --enable-libopenh264 --enable-libopus --enable-libmp3lame --enable-libopenjpeg --enable-libvorbis --enable-pthreads --enable-libtesseract --enable-libvpx\n",
      "  libavutil      58. 29.100 / 58. 29.100\n",
      "  libavcodec     60. 31.102 / 60. 31.102\n",
      "  libavformat    60. 16.100 / 60. 16.100\n",
      "  libavdevice    60.  3.100 / 60.  3.100\n",
      "  libavfilter     9. 12.100 /  9. 12.100\n",
      "  libswscale      7.  5.100 /  7.  5.100\n",
      "  libswresample   4. 12.100 /  4. 12.100\n",
      "[in#0 @ 0xf2b280] Error opening input: No such file or directory\n",
      "Error opening input file ./data/sample_tv360/do_merge/chunk_4_gt.mp4.\n",
      "Error opening input files: No such file or directory\n",
      "Processing videos:  40%|████      | 4/10 [00:00<00:00,  7.72it/s]ffmpeg version 6.1.1 Copyright (c) 2000-2023 the FFmpeg developers\n",
      "  built with gcc 11.2.0 (Anaconda gcc)\n",
      "  configuration: --prefix=/croot/ffmpeg_1722024521393/_h_env_placehold_placehold_placehold_placehold_placehold_placehold_placehold_placehold_placehold_placehold_placehold_placehold_placehold_placehold_placehold_placehold_placehold_placehold_placehold_placehold_placehold_placehold_ --cc=/croot/ffmpeg_1722024521393/_build_env/bin/x86_64-conda-linux-gnu-cc --ar=/croot/ffmpeg_1722024521393/_build_env/bin/x86_64-conda-linux-gnu-ar --nm=/croot/ffmpeg_1722024521393/_build_env/bin/x86_64-conda-linux-gnu-nm --ranlib=/croot/ffmpeg_1722024521393/_build_env/bin/x86_64-conda-linux-gnu-ranlib --strip=/croot/ffmpeg_1722024521393/_build_env/bin/x86_64-conda-linux-gnu-strip --disable-doc --enable-swresample --enable-swscale --enable-openssl --enable-libxml2 --enable-libtheora --enable-demuxer=dash --enable-postproc --enable-hardcoded-tables --enable-libfreetype --enable-libharfbuzz --enable-libfontconfig --enable-libdav1d --enable-zlib --enable-libaom --enable-pic --enable-shared --disable-static --disable-gpl --enable-version3 --disable-sdl2 --enable-libopenh264 --enable-libopus --enable-libmp3lame --enable-libopenjpeg --enable-libvorbis --enable-pthreads --enable-libtesseract --enable-libvpx\n",
      "  libavutil      58. 29.100 / 58. 29.100\n",
      "  libavcodec     60. 31.102 / 60. 31.102\n",
      "  libavformat    60. 16.100 / 60. 16.100\n",
      "  libavdevice    60.  3.100 / 60.  3.100\n",
      "  libavfilter     9. 12.100 /  9. 12.100\n",
      "  libswscale      7.  5.100 /  7.  5.100\n",
      "  libswresample   4. 12.100 /  4. 12.100\n",
      "Input #0, mov,mp4,m4a,3gp,3g2,mj2, from './data/sample_tv360/do_merge/merged_video_processed_5.mp4':\n",
      "  Metadata:\n",
      "    major_brand     : isom\n",
      "    minor_version   : 512\n",
      "    compatible_brands: isomiso2avc1mp41\n",
      "    encoder         : Lavf60.16.100\n",
      "  Duration: 00:00:27.01, start: 0.000000, bitrate: 1870 kb/s\n",
      "  Stream #0:0[0x1](und): Video: h264 (Constrained Baseline) (avc1 / 0x31637661), yuv420p(tv, bt709, progressive), 640x360 [SAR 1:1 DAR 16:9], 1735 kb/s, 30 fps, 30 tbr, 15360 tbn (default)\n",
      "    Metadata:\n",
      "      handler_name    : ISO Media file produced by Google Inc.\n",
      "      vendor_id       : [0][0][0][0]\n",
      "      encoder         : Lavc60.31.102 libopenh264\n",
      "  Stream #0:1[0x2](und): Audio: aac (LC) (mp4a / 0x6134706D), 44100 Hz, stereo, fltp, 128 kb/s (default)\n",
      "    Metadata:\n",
      "      handler_name    : SoundHandler\n",
      "      vendor_id       : [0][0][0][0]\n",
      "Output ./data/sample_tv360/do_merge/merged_video_processed_5.mp4 same as Input #0 - exiting\n",
      "FFmpeg cannot edit existing files in-place.\n",
      "Error opening output file ./data/sample_tv360/do_merge/merged_video_processed_5.mp4.\n",
      "Error opening output files: Invalid argument\n",
      "ffmpeg version 6.1.1 Copyright (c) 2000-2023 the FFmpeg developers\n",
      "  built with gcc 11.2.0 (Anaconda gcc)\n",
      "  configuration: --prefix=/croot/ffmpeg_1722024521393/_h_env_placehold_placehold_placehold_placehold_placehold_placehold_placehold_placehold_placehold_placehold_placehold_placehold_placehold_placehold_placehold_placehold_placehold_placehold_placehold_placehold_placehold_placehold_ --cc=/croot/ffmpeg_1722024521393/_build_env/bin/x86_64-conda-linux-gnu-cc --ar=/croot/ffmpeg_1722024521393/_build_env/bin/x86_64-conda-linux-gnu-ar --nm=/croot/ffmpeg_1722024521393/_build_env/bin/x86_64-conda-linux-gnu-nm --ranlib=/croot/ffmpeg_1722024521393/_build_env/bin/x86_64-conda-linux-gnu-ranlib --strip=/croot/ffmpeg_1722024521393/_build_env/bin/x86_64-conda-linux-gnu-strip --disable-doc --enable-swresample --enable-swscale --enable-openssl --enable-libxml2 --enable-libtheora --enable-demuxer=dash --enable-postproc --enable-hardcoded-tables --enable-libfreetype --enable-libharfbuzz --enable-libfontconfig --enable-libdav1d --enable-zlib --enable-libaom --enable-pic --enable-shared --disable-static --disable-gpl --enable-version3 --disable-sdl2 --enable-libopenh264 --enable-libopus --enable-libmp3lame --enable-libopenjpeg --enable-libvorbis --enable-pthreads --enable-libtesseract --enable-libvpx\n",
      "  libavutil      58. 29.100 / 58. 29.100\n",
      "  libavcodec     60. 31.102 / 60. 31.102\n",
      "  libavformat    60. 16.100 / 60. 16.100\n",
      "  libavdevice    60.  3.100 / 60.  3.100\n",
      "  libavfilter     9. 12.100 /  9. 12.100\n",
      "  libswscale      7.  5.100 /  7.  5.100\n",
      "  libswresample   4. 12.100 /  4. 12.100\n",
      "[in#0 @ 0xd74280] Error opening input: No such file or directory\n",
      "Error opening input file ./data/sample_tv360/do_merge/chunk_5_gt.mp4.\n",
      "Error opening input files: No such file or directory\n",
      "Processing videos:  50%|█████     | 5/10 [00:00<00:00,  7.20it/s]ffmpeg version 6.1.1 Copyright (c) 2000-2023 the FFmpeg developers\n",
      "  built with gcc 11.2.0 (Anaconda gcc)\n",
      "  configuration: --prefix=/croot/ffmpeg_1722024521393/_h_env_placehold_placehold_placehold_placehold_placehold_placehold_placehold_placehold_placehold_placehold_placehold_placehold_placehold_placehold_placehold_placehold_placehold_placehold_placehold_placehold_placehold_placehold_ --cc=/croot/ffmpeg_1722024521393/_build_env/bin/x86_64-conda-linux-gnu-cc --ar=/croot/ffmpeg_1722024521393/_build_env/bin/x86_64-conda-linux-gnu-ar --nm=/croot/ffmpeg_1722024521393/_build_env/bin/x86_64-conda-linux-gnu-nm --ranlib=/croot/ffmpeg_1722024521393/_build_env/bin/x86_64-conda-linux-gnu-ranlib --strip=/croot/ffmpeg_1722024521393/_build_env/bin/x86_64-conda-linux-gnu-strip --disable-doc --enable-swresample --enable-swscale --enable-openssl --enable-libxml2 --enable-libtheora --enable-demuxer=dash --enable-postproc --enable-hardcoded-tables --enable-libfreetype --enable-libharfbuzz --enable-libfontconfig --enable-libdav1d --enable-zlib --enable-libaom --enable-pic --enable-shared --disable-static --disable-gpl --enable-version3 --disable-sdl2 --enable-libopenh264 --enable-libopus --enable-libmp3lame --enable-libopenjpeg --enable-libvorbis --enable-pthreads --enable-libtesseract --enable-libvpx\n",
      "  libavutil      58. 29.100 / 58. 29.100\n",
      "  libavcodec     60. 31.102 / 60. 31.102\n",
      "  libavformat    60. 16.100 / 60. 16.100\n",
      "  libavdevice    60.  3.100 / 60.  3.100\n",
      "  libavfilter     9. 12.100 /  9. 12.100\n",
      "  libswscale      7.  5.100 /  7.  5.100\n",
      "  libswresample   4. 12.100 /  4. 12.100\n",
      "Input #0, mov,mp4,m4a,3gp,3g2,mj2, from './data/sample_tv360/do_merge/merged_video_processed_6.mp4':\n",
      "  Metadata:\n",
      "    major_brand     : isom\n",
      "    minor_version   : 512\n",
      "    compatible_brands: isomiso2avc1mp41\n",
      "    encoder         : Lavf60.16.100\n",
      "  Duration: 00:00:27.01, start: 0.000000, bitrate: 1889 kb/s\n",
      "  Stream #0:0[0x1](und): Video: h264 (Constrained Baseline) (avc1 / 0x31637661), yuv420p(tv, bt709, progressive), 640x360 [SAR 1:1 DAR 16:9], 1754 kb/s, 30 fps, 30 tbr, 15360 tbn (default)\n",
      "    Metadata:\n",
      "      handler_name    : ISO Media file produced by Google Inc.\n",
      "      vendor_id       : [0][0][0][0]\n",
      "      encoder         : Lavc60.31.102 libopenh264\n",
      "  Stream #0:1[0x2](und): Audio: aac (LC) (mp4a / 0x6134706D), 44100 Hz, stereo, fltp, 127 kb/s (default)\n",
      "    Metadata:\n",
      "      handler_name    : SoundHandler\n",
      "      vendor_id       : [0][0][0][0]\n",
      "Output ./data/sample_tv360/do_merge/merged_video_processed_6.mp4 same as Input #0 - exiting\n",
      "FFmpeg cannot edit existing files in-place.\n",
      "Error opening output file ./data/sample_tv360/do_merge/merged_video_processed_6.mp4.\n",
      "Error opening output files: Invalid argument\n",
      "ffmpeg version 6.1.1 Copyright (c) 2000-2023 the FFmpeg developers\n",
      "  built with gcc 11.2.0 (Anaconda gcc)\n",
      "  configuration: --prefix=/croot/ffmpeg_1722024521393/_h_env_placehold_placehold_placehold_placehold_placehold_placehold_placehold_placehold_placehold_placehold_placehold_placehold_placehold_placehold_placehold_placehold_placehold_placehold_placehold_placehold_placehold_placehold_ --cc=/croot/ffmpeg_1722024521393/_build_env/bin/x86_64-conda-linux-gnu-cc --ar=/croot/ffmpeg_1722024521393/_build_env/bin/x86_64-conda-linux-gnu-ar --nm=/croot/ffmpeg_1722024521393/_build_env/bin/x86_64-conda-linux-gnu-nm --ranlib=/croot/ffmpeg_1722024521393/_build_env/bin/x86_64-conda-linux-gnu-ranlib --strip=/croot/ffmpeg_1722024521393/_build_env/bin/x86_64-conda-linux-gnu-strip --disable-doc --enable-swresample --enable-swscale --enable-openssl --enable-libxml2 --enable-libtheora --enable-demuxer=dash --enable-postproc --enable-hardcoded-tables --enable-libfreetype --enable-libharfbuzz --enable-libfontconfig --enable-libdav1d --enable-zlib --enable-libaom --enable-pic --enable-shared --disable-static --disable-gpl --enable-version3 --disable-sdl2 --enable-libopenh264 --enable-libopus --enable-libmp3lame --enable-libopenjpeg --enable-libvorbis --enable-pthreads --enable-libtesseract --enable-libvpx\n",
      "  libavutil      58. 29.100 / 58. 29.100\n",
      "  libavcodec     60. 31.102 / 60. 31.102\n",
      "  libavformat    60. 16.100 / 60. 16.100\n",
      "  libavdevice    60.  3.100 / 60.  3.100\n",
      "  libavfilter     9. 12.100 /  9. 12.100\n",
      "  libswscale      7.  5.100 /  7.  5.100\n",
      "  libswresample   4. 12.100 /  4. 12.100\n",
      "[in#0 @ 0x828280] Error opening input: No such file or directory\n",
      "Error opening input file ./data/sample_tv360/do_merge/chunk_6_gt.mp4.\n",
      "Error opening input files: No such file or directory\n",
      "ffmpeg version 6.1.1 Copyright (c) 2000-2023 the FFmpeg developers\n",
      "  built with gcc 11.2.0 (Anaconda gcc)\n",
      "  configuration: --prefix=/croot/ffmpeg_1722024521393/_h_env_placehold_placehold_placehold_placehold_placehold_placehold_placehold_placehold_placehold_placehold_placehold_placehold_placehold_placehold_placehold_placehold_placehold_placehold_placehold_placehold_placehold_placehold_ --cc=/croot/ffmpeg_1722024521393/_build_env/bin/x86_64-conda-linux-gnu-cc --ar=/croot/ffmpeg_1722024521393/_build_env/bin/x86_64-conda-linux-gnu-ar --nm=/croot/ffmpeg_1722024521393/_build_env/bin/x86_64-conda-linux-gnu-nm --ranlib=/croot/ffmpeg_1722024521393/_build_env/bin/x86_64-conda-linux-gnu-ranlib --strip=/croot/ffmpeg_1722024521393/_build_env/bin/x86_64-conda-linux-gnu-strip --disable-doc --enable-swresample --enable-swscale --enable-openssl --enable-libxml2 --enable-libtheora --enable-demuxer=dash --enable-postproc --enable-hardcoded-tables --enable-libfreetype --enable-libharfbuzz --enable-libfontconfig --enable-libdav1d --enable-zlib --enable-libaom --enable-pic --enable-shared --disable-static --disable-gpl --enable-version3 --disable-sdl2 --enable-libopenh264 --enable-libopus --enable-libmp3lame --enable-libopenjpeg --enable-libvorbis --enable-pthreads --enable-libtesseract --enable-libvpx\n",
      "  libavutil      58. 29.100 / 58. 29.100\n",
      "  libavcodec     60. 31.102 / 60. 31.102\n",
      "  libavformat    60. 16.100 / 60. 16.100\n",
      "  libavdevice    60.  3.100 / 60.  3.100\n",
      "  libavfilter     9. 12.100 /  9. 12.100\n",
      "  libswscale      7.  5.100 /  7.  5.100\n",
      "  libswresample   4. 12.100 /  4. 12.100\n",
      "Input #0, mov,mp4,m4a,3gp,3g2,mj2, from './data/sample_tv360/do_merge/merged_video_processed_7.mp4':\n",
      "  Metadata:\n",
      "    major_brand     : isom\n",
      "    minor_version   : 512\n",
      "    compatible_brands: isomiso2avc1mp41\n",
      "    encoder         : Lavf60.16.100\n",
      "  Duration: 00:00:27.01, start: 0.000000, bitrate: 1994 kb/s\n",
      "  Stream #0:0[0x1](und): Video: h264 (Constrained Baseline) (avc1 / 0x31637661), yuv420p(tv, bt709, progressive), 640x360 [SAR 1:1 DAR 16:9], 1860 kb/s, 30 fps, 30 tbr, 15360 tbn (default)\n",
      "    Metadata:\n",
      "      handler_name    : ISO Media file produced by Google Inc.\n",
      "      vendor_id       : [0][0][0][0]\n",
      "      encoder         : Lavc60.31.102 libopenh264\n",
      "  Stream #0:1[0x2](und): Audio: aac (LC) (mp4a / 0x6134706D), 44100 Hz, stereo, fltp, 127 kb/s (default)\n",
      "    Metadata:\n",
      "      handler_name    : SoundHandler\n",
      "      vendor_id       : [0][0][0][0]\n",
      "Output ./data/sample_tv360/do_merge/merged_video_processed_7.mp4 same as Input #0 - exiting\n",
      "FFmpeg cannot edit existing files in-place.\n",
      "Error opening output file ./data/sample_tv360/do_merge/merged_video_processed_7.mp4.\n",
      "Error opening output files: Invalid argument\n",
      "ffmpeg version 6.1.1 Copyright (c) 2000-2023 the FFmpeg developers\n",
      "  built with gcc 11.2.0 (Anaconda gcc)\n",
      "  configuration: --prefix=/croot/ffmpeg_1722024521393/_h_env_placehold_placehold_placehold_placehold_placehold_placehold_placehold_placehold_placehold_placehold_placehold_placehold_placehold_placehold_placehold_placehold_placehold_placehold_placehold_placehold_placehold_placehold_ --cc=/croot/ffmpeg_1722024521393/_build_env/bin/x86_64-conda-linux-gnu-cc --ar=/croot/ffmpeg_1722024521393/_build_env/bin/x86_64-conda-linux-gnu-ar --nm=/croot/ffmpeg_1722024521393/_build_env/bin/x86_64-conda-linux-gnu-nm --ranlib=/croot/ffmpeg_1722024521393/_build_env/bin/x86_64-conda-linux-gnu-ranlib --strip=/croot/ffmpeg_1722024521393/_build_env/bin/x86_64-conda-linux-gnu-strip --disable-doc --enable-swresample --enable-swscale --enable-openssl --enable-libxml2 --enable-libtheora --enable-demuxer=dash --enable-postproc --enable-hardcoded-tables --enable-libfreetype --enable-libharfbuzz --enable-libfontconfig --enable-libdav1d --enable-zlib --enable-libaom --enable-pic --enable-shared --disable-static --disable-gpl --enable-version3 --disable-sdl2 --enable-libopenh264 --enable-libopus --enable-libmp3lame --enable-libopenjpeg --enable-libvorbis --enable-pthreads --enable-libtesseract --enable-libvpx\n",
      "  libavutil      58. 29.100 / 58. 29.100\n",
      "  libavcodec     60. 31.102 / 60. 31.102\n",
      "  libavformat    60. 16.100 / 60. 16.100\n",
      "  libavdevice    60.  3.100 / 60.  3.100\n",
      "  libavfilter     9. 12.100 /  9. 12.100\n",
      "  libswscale      7.  5.100 /  7.  5.100\n",
      "  libswresample   4. 12.100 /  4. 12.100\n",
      "[in#0 @ 0x197d280] Error opening input: No such file or directory\n",
      "Error opening input file ./data/sample_tv360/do_merge/chunk_7_gt.mp4.\n",
      "Error opening input files: No such file or directory\n",
      "Processing videos:  70%|███████   | 7/10 [00:01<00:00,  6.47it/s]ffmpeg version 6.1.1 Copyright (c) 2000-2023 the FFmpeg developers\n",
      "  built with gcc 11.2.0 (Anaconda gcc)\n",
      "  configuration: --prefix=/croot/ffmpeg_1722024521393/_h_env_placehold_placehold_placehold_placehold_placehold_placehold_placehold_placehold_placehold_placehold_placehold_placehold_placehold_placehold_placehold_placehold_placehold_placehold_placehold_placehold_placehold_placehold_ --cc=/croot/ffmpeg_1722024521393/_build_env/bin/x86_64-conda-linux-gnu-cc --ar=/croot/ffmpeg_1722024521393/_build_env/bin/x86_64-conda-linux-gnu-ar --nm=/croot/ffmpeg_1722024521393/_build_env/bin/x86_64-conda-linux-gnu-nm --ranlib=/croot/ffmpeg_1722024521393/_build_env/bin/x86_64-conda-linux-gnu-ranlib --strip=/croot/ffmpeg_1722024521393/_build_env/bin/x86_64-conda-linux-gnu-strip --disable-doc --enable-swresample --enable-swscale --enable-openssl --enable-libxml2 --enable-libtheora --enable-demuxer=dash --enable-postproc --enable-hardcoded-tables --enable-libfreetype --enable-libharfbuzz --enable-libfontconfig --enable-libdav1d --enable-zlib --enable-libaom --enable-pic --enable-shared --disable-static --disable-gpl --enable-version3 --disable-sdl2 --enable-libopenh264 --enable-libopus --enable-libmp3lame --enable-libopenjpeg --enable-libvorbis --enable-pthreads --enable-libtesseract --enable-libvpx\n",
      "  libavutil      58. 29.100 / 58. 29.100\n",
      "  libavcodec     60. 31.102 / 60. 31.102\n",
      "  libavformat    60. 16.100 / 60. 16.100\n",
      "  libavdevice    60.  3.100 / 60.  3.100\n",
      "  libavfilter     9. 12.100 /  9. 12.100\n",
      "  libswscale      7.  5.100 /  7.  5.100\n",
      "  libswresample   4. 12.100 /  4. 12.100\n",
      "Input #0, mov,mp4,m4a,3gp,3g2,mj2, from './data/sample_tv360/do_merge/merged_video_processed_8.mp4':\n",
      "  Metadata:\n",
      "    major_brand     : isom\n",
      "    minor_version   : 512\n",
      "    compatible_brands: isomiso2avc1mp41\n",
      "    encoder         : Lavf60.16.100\n",
      "  Duration: 00:00:27.01, start: 0.000000, bitrate: 1733 kb/s\n",
      "  Stream #0:0[0x1](und): Video: h264 (Constrained Baseline) (avc1 / 0x31637661), yuv420p(tv, bt709, progressive), 640x360 [SAR 1:1 DAR 16:9], 1598 kb/s, 30 fps, 30 tbr, 15360 tbn (default)\n",
      "    Metadata:\n",
      "      handler_name    : ISO Media file produced by Google Inc.\n",
      "      vendor_id       : [0][0][0][0]\n",
      "      encoder         : Lavc60.31.102 libopenh264\n",
      "  Stream #0:1[0x2](und): Audio: aac (LC) (mp4a / 0x6134706D), 44100 Hz, stereo, fltp, 127 kb/s (default)\n",
      "    Metadata:\n",
      "      handler_name    : SoundHandler\n",
      "      vendor_id       : [0][0][0][0]\n",
      "Output ./data/sample_tv360/do_merge/merged_video_processed_8.mp4 same as Input #0 - exiting\n",
      "FFmpeg cannot edit existing files in-place.\n",
      "Error opening output file ./data/sample_tv360/do_merge/merged_video_processed_8.mp4.\n",
      "Error opening output files: Invalid argument\n",
      "ffmpeg version 6.1.1 Copyright (c) 2000-2023 the FFmpeg developers\n",
      "  built with gcc 11.2.0 (Anaconda gcc)\n",
      "  configuration: --prefix=/croot/ffmpeg_1722024521393/_h_env_placehold_placehold_placehold_placehold_placehold_placehold_placehold_placehold_placehold_placehold_placehold_placehold_placehold_placehold_placehold_placehold_placehold_placehold_placehold_placehold_placehold_placehold_ --cc=/croot/ffmpeg_1722024521393/_build_env/bin/x86_64-conda-linux-gnu-cc --ar=/croot/ffmpeg_1722024521393/_build_env/bin/x86_64-conda-linux-gnu-ar --nm=/croot/ffmpeg_1722024521393/_build_env/bin/x86_64-conda-linux-gnu-nm --ranlib=/croot/ffmpeg_1722024521393/_build_env/bin/x86_64-conda-linux-gnu-ranlib --strip=/croot/ffmpeg_1722024521393/_build_env/bin/x86_64-conda-linux-gnu-strip --disable-doc --enable-swresample --enable-swscale --enable-openssl --enable-libxml2 --enable-libtheora --enable-demuxer=dash --enable-postproc --enable-hardcoded-tables --enable-libfreetype --enable-libharfbuzz --enable-libfontconfig --enable-libdav1d --enable-zlib --enable-libaom --enable-pic --enable-shared --disable-static --disable-gpl --enable-version3 --disable-sdl2 --enable-libopenh264 --enable-libopus --enable-libmp3lame --enable-libopenjpeg --enable-libvorbis --enable-pthreads --enable-libtesseract --enable-libvpx\n",
      "  libavutil      58. 29.100 / 58. 29.100\n",
      "  libavcodec     60. 31.102 / 60. 31.102\n",
      "  libavformat    60. 16.100 / 60. 16.100\n",
      "  libavdevice    60.  3.100 / 60.  3.100\n",
      "  libavfilter     9. 12.100 /  9. 12.100\n",
      "  libswscale      7.  5.100 /  7.  5.100\n",
      "  libswresample   4. 12.100 /  4. 12.100\n",
      "[in#0 @ 0xa42280] Error opening input: No such file or directory\n",
      "Error opening input file ./data/sample_tv360/do_merge/chunk_8_gt.mp4.\n",
      "Error opening input files: No such file or directory\n",
      "Processing videos:  80%|████████  | 8/10 [00:01<00:00,  6.70it/s]ffmpeg version 6.1.1 Copyright (c) 2000-2023 the FFmpeg developers\n",
      "  built with gcc 11.2.0 (Anaconda gcc)\n",
      "  configuration: --prefix=/croot/ffmpeg_1722024521393/_h_env_placehold_placehold_placehold_placehold_placehold_placehold_placehold_placehold_placehold_placehold_placehold_placehold_placehold_placehold_placehold_placehold_placehold_placehold_placehold_placehold_placehold_placehold_ --cc=/croot/ffmpeg_1722024521393/_build_env/bin/x86_64-conda-linux-gnu-cc --ar=/croot/ffmpeg_1722024521393/_build_env/bin/x86_64-conda-linux-gnu-ar --nm=/croot/ffmpeg_1722024521393/_build_env/bin/x86_64-conda-linux-gnu-nm --ranlib=/croot/ffmpeg_1722024521393/_build_env/bin/x86_64-conda-linux-gnu-ranlib --strip=/croot/ffmpeg_1722024521393/_build_env/bin/x86_64-conda-linux-gnu-strip --disable-doc --enable-swresample --enable-swscale --enable-openssl --enable-libxml2 --enable-libtheora --enable-demuxer=dash --enable-postproc --enable-hardcoded-tables --enable-libfreetype --enable-libharfbuzz --enable-libfontconfig --enable-libdav1d --enable-zlib --enable-libaom --enable-pic --enable-shared --disable-static --disable-gpl --enable-version3 --disable-sdl2 --enable-libopenh264 --enable-libopus --enable-libmp3lame --enable-libopenjpeg --enable-libvorbis --enable-pthreads --enable-libtesseract --enable-libvpx\n",
      "  libavutil      58. 29.100 / 58. 29.100\n",
      "  libavcodec     60. 31.102 / 60. 31.102\n",
      "  libavformat    60. 16.100 / 60. 16.100\n",
      "  libavdevice    60.  3.100 / 60.  3.100\n",
      "  libavfilter     9. 12.100 /  9. 12.100\n",
      "  libswscale      7.  5.100 /  7.  5.100\n",
      "  libswresample   4. 12.100 /  4. 12.100\n",
      "Input #0, mov,mp4,m4a,3gp,3g2,mj2, from './data/sample_tv360/do_merge/merged_video_processed_9.mp4':\n",
      "  Metadata:\n",
      "    major_brand     : isom\n",
      "    minor_version   : 512\n",
      "    compatible_brands: isomiso2avc1mp41\n",
      "    encoder         : Lavf60.16.100\n",
      "  Duration: 00:00:27.01, start: 0.000000, bitrate: 1861 kb/s\n",
      "  Stream #0:0[0x1](und): Video: h264 (Constrained Baseline) (avc1 / 0x31637661), yuv420p(tv, bt709, progressive), 640x360 [SAR 1:1 DAR 16:9], 1726 kb/s, 30 fps, 30 tbr, 15360 tbn (default)\n",
      "    Metadata:\n",
      "      handler_name    : ISO Media file produced by Google Inc.\n",
      "      vendor_id       : [0][0][0][0]\n",
      "      encoder         : Lavc60.31.102 libopenh264\n",
      "  Stream #0:1[0x2](und): Audio: aac (LC) (mp4a / 0x6134706D), 44100 Hz, stereo, fltp, 128 kb/s (default)\n",
      "    Metadata:\n",
      "      handler_name    : SoundHandler\n",
      "      vendor_id       : [0][0][0][0]\n",
      "Output ./data/sample_tv360/do_merge/merged_video_processed_9.mp4 same as Input #0 - exiting\n",
      "FFmpeg cannot edit existing files in-place.\n",
      "Error opening output file ./data/sample_tv360/do_merge/merged_video_processed_9.mp4.\n",
      "Error opening output files: Invalid argument\n",
      "ffmpeg version 6.1.1 Copyright (c) 2000-2023 the FFmpeg developers\n",
      "  built with gcc 11.2.0 (Anaconda gcc)\n",
      "  configuration: --prefix=/croot/ffmpeg_1722024521393/_h_env_placehold_placehold_placehold_placehold_placehold_placehold_placehold_placehold_placehold_placehold_placehold_placehold_placehold_placehold_placehold_placehold_placehold_placehold_placehold_placehold_placehold_placehold_ --cc=/croot/ffmpeg_1722024521393/_build_env/bin/x86_64-conda-linux-gnu-cc --ar=/croot/ffmpeg_1722024521393/_build_env/bin/x86_64-conda-linux-gnu-ar --nm=/croot/ffmpeg_1722024521393/_build_env/bin/x86_64-conda-linux-gnu-nm --ranlib=/croot/ffmpeg_1722024521393/_build_env/bin/x86_64-conda-linux-gnu-ranlib --strip=/croot/ffmpeg_1722024521393/_build_env/bin/x86_64-conda-linux-gnu-strip --disable-doc --enable-swresample --enable-swscale --enable-openssl --enable-libxml2 --enable-libtheora --enable-demuxer=dash --enable-postproc --enable-hardcoded-tables --enable-libfreetype --enable-libharfbuzz --enable-libfontconfig --enable-libdav1d --enable-zlib --enable-libaom --enable-pic --enable-shared --disable-static --disable-gpl --enable-version3 --disable-sdl2 --enable-libopenh264 --enable-libopus --enable-libmp3lame --enable-libopenjpeg --enable-libvorbis --enable-pthreads --enable-libtesseract --enable-libvpx\n",
      "  libavutil      58. 29.100 / 58. 29.100\n",
      "  libavcodec     60. 31.102 / 60. 31.102\n",
      "  libavformat    60. 16.100 / 60. 16.100\n",
      "  libavdevice    60.  3.100 / 60.  3.100\n",
      "  libavfilter     9. 12.100 /  9. 12.100\n",
      "  libswscale      7.  5.100 /  7.  5.100\n",
      "  libswresample   4. 12.100 /  4. 12.100\n",
      "[in#0 @ 0xe96280] Error opening input: No such file or directory\n",
      "Error opening input file ./data/sample_tv360/do_merge/chunk_9_gt.mp4.\n",
      "Error opening input files: No such file or directory\n",
      "Processing videos:  90%|█████████ | 9/10 [00:01<00:00,  6.89it/s]ffmpeg version 6.1.1 Copyright (c) 2000-2023 the FFmpeg developers\n",
      "  built with gcc 11.2.0 (Anaconda gcc)\n",
      "  configuration: --prefix=/croot/ffmpeg_1722024521393/_h_env_placehold_placehold_placehold_placehold_placehold_placehold_placehold_placehold_placehold_placehold_placehold_placehold_placehold_placehold_placehold_placehold_placehold_placehold_placehold_placehold_placehold_placehold_ --cc=/croot/ffmpeg_1722024521393/_build_env/bin/x86_64-conda-linux-gnu-cc --ar=/croot/ffmpeg_1722024521393/_build_env/bin/x86_64-conda-linux-gnu-ar --nm=/croot/ffmpeg_1722024521393/_build_env/bin/x86_64-conda-linux-gnu-nm --ranlib=/croot/ffmpeg_1722024521393/_build_env/bin/x86_64-conda-linux-gnu-ranlib --strip=/croot/ffmpeg_1722024521393/_build_env/bin/x86_64-conda-linux-gnu-strip --disable-doc --enable-swresample --enable-swscale --enable-openssl --enable-libxml2 --enable-libtheora --enable-demuxer=dash --enable-postproc --enable-hardcoded-tables --enable-libfreetype --enable-libharfbuzz --enable-libfontconfig --enable-libdav1d --enable-zlib --enable-libaom --enable-pic --enable-shared --disable-static --disable-gpl --enable-version3 --disable-sdl2 --enable-libopenh264 --enable-libopus --enable-libmp3lame --enable-libopenjpeg --enable-libvorbis --enable-pthreads --enable-libtesseract --enable-libvpx\n",
      "  libavutil      58. 29.100 / 58. 29.100\n",
      "  libavcodec     60. 31.102 / 60. 31.102\n",
      "  libavformat    60. 16.100 / 60. 16.100\n",
      "  libavdevice    60.  3.100 / 60.  3.100\n",
      "  libavfilter     9. 12.100 /  9. 12.100\n",
      "  libswscale      7.  5.100 /  7.  5.100\n",
      "  libswresample   4. 12.100 /  4. 12.100\n",
      "Input #0, mov,mp4,m4a,3gp,3g2,mj2, from './data/sample_tv360/do_merge/merged_video_processed_10.mp4':\n",
      "  Metadata:\n",
      "    major_brand     : isom\n",
      "    minor_version   : 512\n",
      "    compatible_brands: isomiso2avc1mp41\n",
      "    encoder         : Lavf60.16.100\n",
      "  Duration: 00:00:27.01, start: 0.000000, bitrate: 1648 kb/s\n",
      "  Stream #0:0[0x1](und): Video: h264 (Constrained Baseline) (avc1 / 0x31637661), yuv420p(tv, bt709, progressive), 640x360 [SAR 1:1 DAR 16:9], 1513 kb/s, 30 fps, 30 tbr, 15360 tbn (default)\n",
      "    Metadata:\n",
      "      handler_name    : ISO Media file produced by Google Inc.\n",
      "      vendor_id       : [0][0][0][0]\n",
      "      encoder         : Lavc60.31.102 libopenh264\n",
      "  Stream #0:1[0x2](und): Audio: aac (LC) (mp4a / 0x6134706D), 44100 Hz, stereo, fltp, 127 kb/s (default)\n",
      "    Metadata:\n",
      "      handler_name    : SoundHandler\n",
      "      vendor_id       : [0][0][0][0]\n",
      "Output ./data/sample_tv360/do_merge/merged_video_processed_10.mp4 same as Input #0 - exiting\n",
      "FFmpeg cannot edit existing files in-place.\n",
      "Error opening output file ./data/sample_tv360/do_merge/merged_video_processed_10.mp4.\n",
      "Error opening output files: Invalid argument\n",
      "ffmpeg version 6.1.1 Copyright (c) 2000-2023 the FFmpeg developers\n",
      "  built with gcc 11.2.0 (Anaconda gcc)\n",
      "  configuration: --prefix=/croot/ffmpeg_1722024521393/_h_env_placehold_placehold_placehold_placehold_placehold_placehold_placehold_placehold_placehold_placehold_placehold_placehold_placehold_placehold_placehold_placehold_placehold_placehold_placehold_placehold_placehold_placehold_ --cc=/croot/ffmpeg_1722024521393/_build_env/bin/x86_64-conda-linux-gnu-cc --ar=/croot/ffmpeg_1722024521393/_build_env/bin/x86_64-conda-linux-gnu-ar --nm=/croot/ffmpeg_1722024521393/_build_env/bin/x86_64-conda-linux-gnu-nm --ranlib=/croot/ffmpeg_1722024521393/_build_env/bin/x86_64-conda-linux-gnu-ranlib --strip=/croot/ffmpeg_1722024521393/_build_env/bin/x86_64-conda-linux-gnu-strip --disable-doc --enable-swresample --enable-swscale --enable-openssl --enable-libxml2 --enable-libtheora --enable-demuxer=dash --enable-postproc --enable-hardcoded-tables --enable-libfreetype --enable-libharfbuzz --enable-libfontconfig --enable-libdav1d --enable-zlib --enable-libaom --enable-pic --enable-shared --disable-static --disable-gpl --enable-version3 --disable-sdl2 --enable-libopenh264 --enable-libopus --enable-libmp3lame --enable-libopenjpeg --enable-libvorbis --enable-pthreads --enable-libtesseract --enable-libvpx\n",
      "  libavutil      58. 29.100 / 58. 29.100\n",
      "  libavcodec     60. 31.102 / 60. 31.102\n",
      "  libavformat    60. 16.100 / 60. 16.100\n",
      "  libavdevice    60.  3.100 / 60.  3.100\n",
      "  libavfilter     9. 12.100 /  9. 12.100\n",
      "  libswscale      7.  5.100 /  7.  5.100\n",
      "  libswresample   4. 12.100 /  4. 12.100\n",
      "[in#0 @ 0x1c99280] Error opening input: No such file or directory\n",
      "Error opening input file ./data/sample_tv360/do_merge/chunk_10_gt.mp4.\n",
      "Error opening input files: No such file or directory\n",
      "Processing videos: 100%|██████████| 10/10 [00:01<00:00,  6.98it/s]\n"
     ]
    }
   ],
   "source": [
    "import os\n",
    "import subprocess\n",
    "from tqdm import tqdm\n",
    "def get_video_duration(video_path):\n",
    "    result = subprocess.run(\n",
    "        [\"ffprobe\", \"-v\", \"error\", \"-show_entries\", \"format=duration\", \"-of\", \"default=noprint_wrappers=1:nokey=1\", video_path],\n",
    "        stdout=subprocess.PIPE,\n",
    "        stderr=subprocess.STDOUT\n",
    "    )\n",
    "    return float(result.stdout)\n",
    "\n",
    "data_path = './data/sample_tv360/do_merge'\n",
    "gt_path = './data/sample_tv360/gt'\n",
    "data = sorted(os.listdir('./data/sample_tv360/do_merge'), key = lambda x: int(x.split(\"_\")[-1].split(\".\")[0]))\n",
    "gt = sorted(os.listdir('./data/sample_tv360/gt'), key = lambda x: int(x.split(\"_\")[1].split(\".\")[0]))\n",
    "for i, j in tqdm(zip(data, gt), total=len(data), desc=\"Processing videos\"):\n",
    "    duration1 = get_video_duration(f\"{data_path}/{i}\")\n",
    "    duration2 = get_video_duration(f\"{gt_path}/{j}\")\n",
    "    common_duration = min(duration1, duration2)\n",
    "    \n",
    "    subprocess.run([\"ffmpeg\", '-y',\"-i\", f\"{data_path}/{i}\", \"-t\", str(common_duration), \"-c\", \"copy\", f\"{data_path}/{i}\"])\n",
    "    subprocess.run([\"ffmpeg\", '-y',\"-i\", f\"{data_path}/{j}\", \"-t\", str(common_duration), \"-c\", \"copy\", f\"{data_path}/{j}\"])"
   ]
  },
  {
   "cell_type": "code",
   "execution_count": 2,
   "metadata": {},
   "outputs": [
    {
     "data": {
      "text/plain": [
       "'/home/thiendc/projects'"
      ]
     },
     "execution_count": 2,
     "metadata": {},
     "output_type": "execute_result"
    }
   ],
   "source": [
    "import subprocess\n",
    "\n",
    "# Đường dẫn đến video\n",
    "video1_path = \"./data/sample_tv360/final/complete_video.mp4\"\n",
    "video2_path = \"./data/sample_tv360/final/complete_video_gt.mp4\"\n",
    "output1_path = \"./data/sample_tv360/final/trimmed_complete_video.mp4\"\n",
    "output2_path = \"./data/sample_tv360/final/trimmed_complete_video_gt.mp4\"\n",
    "\n",
    "# Lấy thời lượng của hai video\n",
    "def get_video_duration(video_path):\n",
    "    result = subprocess.run(\n",
    "        [\"ffprobe\", \"-v\", \"error\", \"-show_entries\", \"format=duration\", \"-of\", \"default=noprint_wrappers=1:nokey=1\", video_path],\n",
    "        stdout=subprocess.PIPE,\n",
    "        stderr=subprocess.STDOUT\n",
    "    )\n",
    "    return float(result.stdout)\n",
    "\n",
    "# Tính thời gian chung\n",
    "duration1 = get_video_duration(video1_path)\n",
    "duration2 = get_video_duration(video2_path)\n",
    "common_duration = min(duration1, duration2)\n",
    "\n",
    "# Cắt hai video sao cho có cùng độ dài\n",
    "subprocess.run([\"ffmpeg\", \"-i\", video1_path, \"-t\", str(common_duration), \"-c\", \"copy\", output1_path])\n",
    "subprocess.run([\"ffmpeg\", \"-i\", video2_path, \"-t\", str(common_duration), \"-c\", \"copy\", output2_path])"
   ]
  }
 ],
 "metadata": {
  "kernelspec": {
   "display_name": "Python 3",
   "language": "python",
   "name": "python3"
  },
  "language_info": {
   "codemirror_mode": {
    "name": "ipython",
    "version": 3
   },
   "file_extension": ".py",
   "mimetype": "text/x-python",
   "name": "python",
   "nbconvert_exporter": "python",
   "pygments_lexer": "ipython3",
   "version": "3.10.15"
  }
 },
 "nbformat": 4,
 "nbformat_minor": 2
}
